<svg xmlns="http://www.w3.org/2000/svg" class="leaflet-zoom-animated" width="1461" height="976" viewBox="-30 -20 1461 976" style="transform: translate3d(-30px, -20px, 0px);">
<g>
<path stroke-linejoin="round" stroke-linecap="round" fill-rule="evenodd" stroke="#333" stroke-opacity="1" stroke-width="1" fill="transparent" fill-opacity="0.2" class="leaflet-clickable" d="M959 665L967 665L976 669L981 668L981 671L984 674L986 673L986 669L989 666L992 666L997 668L999 674L1001 675L1009 673L1021 675L1025 671L1032 670L1037 672L1047 665L1053 667L1057 663L1062 666L1065 665L1070 667L1070 671L1072 674L1066 692L1053 697L1047 706L1047 724L1041 732L1034 755L1030 776L1032 790L1041 810L1052 811L1045 826L1037 834L1035 834L1026 824L1023 828L1013 828L1007 825L1005 826L1005 831L1000 839L996 837L992 831L987 830L982 824L974 829L955 828L951 826L940 828L933 827L922 832L918 846L913 841L913 839L916 836L914 831L917 824L916 820L908 812L914 809L915 798L919 786L925 780L924 764L916 746L917 741L927 736L924 733L924 731L927 728L927 722L925 719L922 717L905 714L892 708L878 715L870 708L860 709L858 704L853 703L848 698L844 700L841 694L839 696L836 694L836 685L830 681L828 676L825 675L819 663L813 657L808 656L804 658L796 658L792 662L787 663L784 661L781 653L771 649L768 650L756 648L741 654L737 639L741 629L745 625L743 622L742 611L740 609L742 597L736 592L735 587L731 587L729 579L717 574L715 576L711 573L711 570L707 568L704 564L700 565L694 562L688 550L672 551L668 547L663 545L660 550L650 548L649 550L643 553L642 564L638 568L623 570L621 567L601 579L598 579L594 572L589 573L586 568L576 563L557 563L555 560L545 556L541 551L535 553L529 558L521 557L517 554L517 548L509 543L507 543L491 561L487 562L485 559L477 563L472 558L472 550L470 550L462 541L457 531L455 530L448 532L440 530L436 527L431 519L428 518L419 508L415 507L405 513L397 513L389 517L385 512L381 511L374 513L364 503L361 494L346 485L334 486L331 481L330 475L338 468L340 450L336 446L339 440L344 439L345 436L343 432L345 429L350 426L358 424L369 413L384 410L390 406L393 406L414 427L421 427L426 424L433 416L441 403L447 397L453 394L467 395L478 381L481 374L481 370L475 366L468 365L461 361L458 356L459 353L476 346L480 340L480 327L485 316L485 313L483 311L485 308L490 306L493 307L496 305L493 304L486 297L477 296L477 293L497 280L499 277L500 268L509 265L512 262L513 258L516 236L522 218L518 209L509 205L506 191L493 173L491 167L500 153L499 149L490 143L488 135L496 130L498 121L514 106L516 101L524 97L537 95L542 99L541 108L547 105L557 104L564 98L576 101L584 99L592 101L601 93L607 92L609 101L621 95L625 99L632 99L633 102L643 110L636 113L636 122L644 119L652 122L658 119L674 124L685 123L694 119L697 122L714 123L724 120L737 133L748 132L751 129L753 132L752 134L756 135L760 141L757 144L754 151L752 161L753 171L771 179L771 197L775 205L784 216L785 219L783 223L785 226L785 230L788 230L790 233L793 234L795 240L799 243L804 244L826 240L832 243L834 250L839 250L842 246L841 240L844 237L849 236L854 246L862 246L863 253L872 256L886 264L888 268L882 276L885 279L890 290L895 289L897 280L905 282L916 282L919 285L922 291L925 305L930 315L930 337L929 342L916 352L914 362L903 381L904 387L912 401L916 404L914 424L916 430L919 432L918 435L913 436L909 440L930 451L933 454L940 453L947 455L950 468L952 469L977 461L988 461L997 457L1000 462L1006 462L1010 460L1013 461L1014 471L1018 473L1020 476L1017 484L1019 486L1017 486L1017 488L1015 487L1014 489L1017 491L1018 494L1018 499L1015 502L1015 504L1017 507L1017 512L1020 515L1020 521L1024 521L1041 534L1038 543L1027 548L1012 561L1011 560L1002 563L1002 572L1007 573L1008 575L1006 579L1005 578L1005 581L1001 580L1002 583L1005 583L998 587L999 589L996 594L996 601L994 607L992 607L994 618L991 618L986 613L981 614L980 612L979 614L977 613L977 616L973 617L966 617L964 614L967 627L960 639L961 653L958 655L958 663z"/>
</g>
<g>
<path stroke-linejoin="round" stroke-linecap="round" fill-rule="evenodd" stroke="#999" stroke-opacity="1" stroke-width="1" stroke-dasharray="1,6" fill="transparent" fill-opacity="0.2" class="leaflet-clickable" d="M876 475L856 473L850 469L851 468L847 464L842 462L841 464L839 463L837 465L842 470L841 479L844 481L845 476L847 481L844 488L841 490L836 491L834 489L802 483L802 480L800 484L795 483L788 485L785 478L776 478L760 462L757 451L757 442L754 440L754 433L760 424L770 421L772 413L771 411L780 414L783 417L787 426L789 427L793 424L806 423L811 420L822 424L824 422L827 422L836 425L852 435L865 440L868 453L872 458L879 459L877 469z"/>
</g>
<g>
<path stroke-linejoin="round" stroke-linecap="round" fill-rule="evenodd" stroke="#999" stroke-opacity="1" stroke-width="1" stroke-dasharray="1,6" fill="transparent" fill-opacity="0.2" class="leaflet-clickable" d="M907 484L902 484L900 482L900 477L893 475L876 475L879 460L878 458L872 458L868 454L865 442L865 440L874 440L875 430L879 426L884 424L886 425L889 431L897 432L898 428L896 426L899 422L899 414L902 414L904 416L915 414L914 424L919 434L913 436L909 440L910 441L923 447L933 454L940 453L947 455L950 468L952 469L959 467L959 480L942 480L933 477L913 477L914 482L907 484z"/>
</g>
<g>
<path stroke-linejoin="round" stroke-linecap="round" fill-rule="evenodd" stroke="#999" stroke-opacity="1" stroke-width="1" stroke-dasharray="1,6" fill="transparent" fill-opacity="0.2" class="leaflet-clickable" d="M679 393L662 391L653 397L645 389L645 382L643 378L643 371L645 367L650 362L653 361L664 366L666 365L666 360L664 360L666 355L670 359L676 359L680 365L677 372L674 370L673 372L671 372L670 381L674 385L680 386L680 388z"/>
</g>
<g>
<path stroke-linejoin="round" stroke-linecap="round" fill-rule="evenodd" stroke="#999" stroke-opacity="1" stroke-width="1" stroke-dasharray="1,6" fill="transparent" fill-opacity="0.2" class="leaflet-clickable" d="M788 485L795 483L799 484L801 483L801 480L802 483L834 489L836 491L841 490L844 488L847 481L845 476L844 481L841 479L842 470L837 465L839 463L841 464L842 462L847 464L851 468L850 469L859 474L900 477L900 482L902 484L907 484L901 491L899 498L896 501L884 507L883 514L876 516L875 520L871 523L868 523L865 520L865 518L856 514L838 520L840 516L835 513L802 510L798 506L789 486z"/>
</g>
<g>
<path stroke-linejoin="round" stroke-linecap="round" fill-rule="evenodd" stroke="#999" stroke-opacity="1" stroke-width="1" stroke-dasharray="1,6" fill="transparent" fill-opacity="0.2" class="leaflet-clickable" d="M837 515L835 516L835 514L837 515z"/>
</g>
<g>
<path stroke-linejoin="round" stroke-linecap="round" fill-rule="evenodd" stroke="#999" stroke-opacity="1" stroke-width="1" stroke-dasharray="1,6" fill="transparent" fill-opacity="0.2" class="leaflet-clickable" d="M865 440L856 437L840 427L827 422L824 422L823 424L812 420L806 423L793 424L789 427L787 426L783 417L774 411L771 411L771 418L769 422L760 424L759 428L754 433L754 440L739 432L735 426L731 415L725 413L720 414L716 411L716 414L703 420L693 405L679 393L680 386L674 385L670 381L671 372L673 372L674 370L677 371L680 365L676 359L670 358L666 355L664 360L666 360L666 365L664 366L653 361L650 362L643 371L645 389L642 387L640 383L639 377L633 364L617 352L604 350L594 346L592 347L592 352L589 358L587 357L585 346L581 343L576 343L575 341L577 337L576 332L578 330L575 327L585 326L585 323L579 318L579 315L598 309L607 304L615 309L638 301L641 301L648 305L661 304L669 310L675 312L688 306L715 300L720 297L725 291L725 288L731 290L743 298L756 302L782 323L782 329L785 334L800 332L806 347L810 352L834 355L838 359L834 366L850 369L848 378L844 379L839 384L837 390L844 392L853 391L857 393L862 396L869 407L872 429L875 430L874 440L867 441z"/>
</g>
<g>
<path stroke-linejoin="round" stroke-linecap="round" fill-rule="evenodd" stroke="#999" stroke-opacity="1" stroke-width="1" stroke-dasharray="1,6" fill="transparent" fill-opacity="0.2" class="leaflet-clickable" d="M959 665L957 665L955 676L953 675L951 679L954 680L953 679L956 677L954 682L953 680L953 685L946 687L940 693L928 693L930 705L929 707L923 710L922 717L905 714L892 708L878 715L870 708L860 709L858 704L853 703L848 698L844 700L841 694L839 696L836 694L836 685L830 681L828 676L825 675L819 663L813 657L808 656L804 658L796 658L792 662L787 663L784 661L781 653L771 649L768 650L756 648L741 654L737 639L741 629L745 625L743 622L742 611L740 609L742 597L736 592L735 587L731 587L729 579L731 576L734 579L746 572L753 570L758 565L762 565L768 572L768 574L773 574L775 576L776 574L780 578L786 577L791 572L792 574L795 572L796 569L798 569L800 572L805 570L806 573L802 576L802 579L810 579L809 577L811 571L813 571L816 574L816 569L820 569L824 560L821 558L817 551L816 545L813 541L815 537L816 538L818 535L822 533L829 536L835 528L835 524L838 520L856 514L865 518L865 520L868 523L873 522L876 516L883 514L884 507L896 501L899 498L901 491L907 484L914 482L913 477L933 477L942 480L959 480L959 467L977 461L988 461L997 457L1000 462L1006 462L1010 460L1013 461L1014 471L1018 473L1020 476L1017 484L1019 486L1017 486L1017 488L1015 487L1014 489L1017 491L1018 494L1018 499L1015 502L1015 504L1017 507L1017 512L1020 515L1020 521L1024 521L1029 526L1039 532L1041 534L1041 537L1038 543L1027 548L1012 561L1011 560L1002 563L1002 572L1007 573L1008 575L1006 579L1005 578L1005 581L1001 580L1002 583L1005 583L998 587L999 589L996 594L996 601L994 607L992 607L994 618L991 618L986 613L981 614L980 612L979 614L977 613L977 616L973 617L966 617L964 614L967 627L960 639L961 653L958 655L958 663z"/>
</g>
<g>
<path stroke-linejoin="round" stroke-linecap="round" fill-rule="evenodd" stroke="#999" stroke-opacity="1" stroke-width="1" stroke-dasharray="1,6" fill="transparent" fill-opacity="0.2" class="leaflet-clickable" d="M485 313L491 317L492 322L499 325L498 316L500 314L505 315L509 319L514 320L517 323L534 320L534 324L540 334L544 331L550 330L554 335L557 335L560 341L562 342L572 340L575 341L576 343L583 344L586 348L588 358L592 352L592 347L594 346L604 350L617 352L633 364L642 387L653 397L662 391L679 393L693 405L703 420L716 414L716 411L720 414L731 415L735 426L739 432L757 442L757 451L760 462L776 478L785 478L798 506L802 510L835 513L835 516L840 516L835 523L835 528L829 536L822 533L818 535L816 538L815 537L813 541L816 545L817 551L821 558L824 560L820 569L816 569L817 574L811 571L809 576L810 579L806 580L802 579L802 576L806 573L806 571L805 570L800 572L798 569L796 569L793 574L791 572L786 577L780 578L777 574L775 576L774 574L768 575L768 572L762 565L758 565L753 570L746 572L734 579L732 576L729 579L717 574L715 576L711 573L711 570L707 568L704 564L700 565L694 562L688 550L672 551L668 547L663 545L660 550L650 548L649 550L643 553L642 564L638 568L623 570L621 567L601 579L598 579L594 572L589 573L586 568L576 563L557 563L555 560L545 556L541 551L535 553L529 558L521 557L517 554L517 548L509 543L507 543L491 561L487 562L485 559L477 563L472 558L472 550L470 550L462 541L457 531L455 530L448 532L440 530L436 527L431 519L428 518L419 508L415 507L405 513L397 513L389 517L385 512L381 511L374 513L364 503L361 494L346 485L334 486L331 481L330 475L338 468L340 450L336 446L339 440L344 439L345 436L343 432L345 429L350 426L358 424L369 413L384 410L390 406L393 406L414 427L421 427L426 424L433 416L441 403L447 397L453 394L467 395L478 381L481 374L481 370L475 366L468 365L461 361L458 356L459 353L476 346L480 340L480 327L485 316z"/>
</g>
<g>
<path stroke-linejoin="round" stroke-linecap="round" fill-rule="evenodd" stroke="#999" stroke-opacity="1" stroke-width="1" stroke-dasharray="1,6" fill="transparent" fill-opacity="0.2" class="leaflet-clickable" d="M835 513L840 515L835 514z"/>
</g>
<g>
<path stroke-linejoin="round" stroke-linecap="round" fill-rule="evenodd" stroke="#999" stroke-opacity="1" stroke-width="1" stroke-dasharray="1,6" fill="transparent" fill-opacity="0.2" class="leaflet-clickable" d="M725 288L723 280L722 259L723 253L725 252L725 246L731 243L732 237L730 238L729 235L732 232L731 230L738 229L740 226L743 226L743 224L746 226L748 226L751 223L754 224L752 222L752 219L755 215L754 214L767 199L770 193L775 205L784 216L785 219L783 223L785 226L785 230L788 230L790 233L793 234L795 240L799 243L809 244L826 240L832 243L834 250L839 250L842 246L841 240L844 237L849 236L854 246L862 246L863 253L872 256L886 264L888 268L882 276L885 279L890 290L895 289L897 280L905 282L916 282L921 288L925 305L930 315L930 337L929 342L916 352L914 362L903 381L904 387L912 401L916 404L915 414L904 416L902 414L899 414L899 422L896 426L898 428L898 432L889 431L886 425L884 424L879 426L876 430L872 429L869 407L862 396L853 391L844 392L838 390L839 384L844 379L848 378L850 369L849 368L834 367L834 364L838 359L834 355L810 352L806 347L800 332L785 334L782 329L782 323L756 302L743 298L731 290z"/>
</g>
<g>
<path stroke-linejoin="round" stroke-linecap="round" fill-rule="evenodd" stroke="#999" stroke-opacity="1" stroke-width="1" stroke-dasharray="1,6" fill="transparent" fill-opacity="0.2" class="leaflet-clickable" d="M922 717L923 710L929 707L930 705L928 693L940 693L946 687L953 685L953 680L954 681L956 678L953 679L954 680L951 679L952 675L955 676L957 665L967 665L976 669L981 668L981 671L984 674L986 673L986 669L989 666L992 666L997 668L999 674L1001 675L1009 673L1021 675L1025 671L1032 670L1037 672L1047 665L1053 667L1057 663L1062 666L1069 666L1072 674L1066 692L1053 697L1047 706L1047 724L1041 732L1036 745L1030 776L1032 790L1041 810L1052 811L1045 826L1040 832L1035 834L1026 824L1023 828L1013 828L1007 825L1005 826L1005 831L1000 839L996 837L992 831L987 830L982 824L974 829L955 828L951 826L940 828L933 827L922 832L918 846L913 841L913 839L916 836L914 831L917 824L916 820L908 812L914 809L915 798L919 786L925 780L924 764L916 746L917 741L927 736L924 733L924 731L927 728L927 722L925 719z"/>
</g>
<g>
<path stroke-linejoin="round" stroke-linecap="round" fill-rule="evenodd" stroke="#099" stroke-opacity="1" stroke-width="1" fill="#099" fill-opacity="0.2" class="leaflet-clickable" d="M485 313L483 311L485 308L490 306L493 307L496 305L493 304L486 297L477 296L477 293L497 280L499 277L500 268L509 265L512 262L516 236L522 218L518 209L509 205L506 191L493 173L491 167L500 153L499 149L490 143L488 139L488 135L496 130L498 121L514 106L516 101L524 97L537 95L542 99L541 108L547 105L557 104L564 98L576 101L584 99L592 101L601 93L607 92L609 101L621 95L625 99L632 99L633 102L643 110L636 113L636 122L644 119L652 122L658 119L674 124L685 123L694 119L697 122L714 123L724 120L737 133L748 132L751 129L753 132L752 134L756 135L759 139L760 141L757 144L754 151L752 168L753 171L756 173L771 179L772 184L770 193L767 199L755 214L754 218L752 219L752 222L754 223L751 223L748 226L743 224L743 226L740 226L738 229L731 230L732 231L729 235L730 238L732 237L731 243L725 246L725 251L723 253L722 259L725 291L720 297L708 302L688 306L675 312L669 310L661 304L648 305L641 301L615 309L607 304L598 309L580 314L579 318L585 323L585 325L582 327L576 326L575 327L578 330L576 332L577 337L575 341L572 340L566 342L560 341L557 335L554 335L550 330L544 331L541 334L535 326L534 320L517 323L514 320L509 319L505 315L500 314L498 316L499 325L492 322L491 317L488 315z"/>
</g>
</svg>